<?xml version="1.0" encoding="UTF-8" standalone="no"?>
<svg
   viewBox="0 0 653.18291 212.06897"
   height="212.06897"
   width="653.18292"
   xml:space="preserve"
   id="svg2"
   version="1.1"
   xmlns="http://www.w3.org/2000/svg"
   xmlns:svg="http://www.w3.org/2000/svg"
   xmlns:rdf="http://www.w3.org/1999/02/22-rdf-syntax-ns#"
   xmlns:cc="http://creativecommons.org/ns#"
   xmlns:dc="http://purl.org/dc/elements/1.1/"><metadata
     id="metadata8"><rdf:RDF><cc:Work
         rdf:about=""><dc:format>image/svg+xml</dc:format><dc:type
           rdf:resource="http://purl.org/dc/dcmitype/StillImage" /></cc:Work></rdf:RDF></metadata><defs
     id="defs6"><clipPath
       id="clipPath22"
       clipPathUnits="userSpaceOnUse"><path
         id="path20"
         d="M 0,595.276 H 841.89 V 0 H 0 Z" /></clipPath></defs><g
     transform="matrix(1.3333333,0,0,-1.3333333,-235.7044,510.50064)"
     id="g10"><g
       transform="translate(351.1302,267.6498)"
       id="g12"><path
         id="path14"
         style="fill:#212849;fill-opacity:1;fill-rule:nonzero;stroke:none"
         d="m 0,0 -0.052,8.064 13.354,1.733 -0.164,25.487 -26.481,44.505 -7.191,1.779 -0.051,7.888 36.552,0.235 0.051,-7.888 -8.23,-1.878 15.676,-30.271 2.581,-7.636 3.131,7.377 14.397,30.76 -9.722,1.763 -0.051,7.888 29.783,0.191 0.051,-7.888 L 55.229,80.23 32.971,35.529 33.135,9.924 47.157,8.367 47.209,0.303 Z" /></g><g
       id="g16"><g
         clip-path="url(#clipPath22)"
         id="g18"><g
           transform="translate(440.6887,274.9938)"
           id="g24"><path
             id="path26"
             style="fill:#212849;fill-opacity:1;fill-rule:nonzero;stroke:none"
             d="m 0,0 c 2.158,0.014 4.017,0.506 5.581,1.479 1.561,0.971 2.856,2.49 3.886,4.557 1.026,2.068 1.772,4.711 2.245,7.931 0.469,3.221 0.688,7.069 0.659,11.541 -0.03,4.592 -0.28,8.661 -0.756,12.21 -0.471,3.548 -1.219,6.516 -2.233,8.902 -1.018,2.387 -2.342,4.194 -3.98,5.42 -1.635,1.225 -3.632,1.831 -5.984,1.816 -2.161,-0.014 -4.031,-0.507 -5.614,-1.478 -1.583,-0.973 -2.897,-2.492 -3.942,-4.557 -1.049,-2.068 -1.817,-4.713 -2.305,-7.933 -0.488,-3.221 -0.718,-7.067 -0.689,-11.541 0.03,-4.592 0.291,-8.661 0.782,-12.208 0.494,-3.55 1.268,-6.518 2.323,-8.904 1.055,-2.386 2.401,-4.193 4.04,-5.419 C -4.353,0.591 -2.356,-0.015 0,0 m -32.781,26.338 c -0.038,5.962 0.852,11.168 2.667,15.614 1.815,4.447 4.244,8.151 7.288,11.114 3.039,2.963 6.566,5.182 10.581,6.661 4.01,1.476 8.197,2.229 12.55,2.257 5.1,0.032 9.619,-0.733 13.555,-2.297 3.933,-1.564 7.242,-3.83 9.931,-6.793 2.689,-2.965 4.732,-6.582 6.135,-10.85 1.4,-4.268 2.115,-9.11 2.15,-14.525 C 32.115,21.398 31.23,16.093 29.415,11.609 27.596,7.123 25.171,3.43 22.127,0.525 19.087,-2.379 15.567,-4.541 11.575,-5.957 7.579,-7.376 3.406,-8.1 -0.95,-8.128 c -5.1,-0.033 -9.619,0.733 -13.552,2.297 -3.936,1.564 -7.256,3.827 -9.964,6.794 -2.708,2.963 -4.762,6.581 -6.161,10.85 -1.4,4.267 -2.119,9.108 -2.154,14.525" /></g><g
           transform="translate(515.2639,278.0645)"
           id="g28"><path
             id="path30"
             style="fill:#212849;fill-opacity:1;fill-rule:nonzero;stroke:none"
             d="m 0,0 c 2.393,0.015 4.518,0.48 6.378,1.395 1.856,0.913 3.275,1.943 4.247,3.088 l -0.285,44.38 c -0.67,0.7 -1.774,1.322 -3.307,1.861 -1.536,0.54 -3.363,0.803 -5.479,0.79 -2.121,-0.014 -4.118,-0.479 -5.997,-1.392 -1.875,-0.916 -3.514,-2.418 -4.915,-4.506 -1.4,-2.09 -2.511,-4.853 -3.331,-8.292 -0.823,-3.44 -1.255,-7.67 -1.302,-12.692 -0.05,-4.396 0.247,-8.151 0.896,-11.267 0.648,-3.115 1.577,-5.67 2.786,-7.663 1.21,-1.995 2.692,-3.447 4.444,-4.358 C -4.112,0.434 -2.158,-0.014 0,0 m -7.406,-10.703 c -3.65,-0.024 -7.057,0.613 -10.225,1.907 -3.168,1.294 -5.937,3.306 -8.311,6.038 -2.369,2.731 -4.239,6.184 -5.597,10.354 -1.362,4.17 -2.059,9.1 -2.096,14.789 -0.034,5.377 0.727,10.317 2.287,14.819 1.561,4.503 3.832,8.392 6.813,11.67 2.982,3.275 6.623,5.841 10.926,7.692 4.307,1.852 9.185,2.796 14.641,2.831 1.649,0.011 3.246,-0.058 4.799,-0.205 1.549,-0.147 3.031,-0.373 4.447,-0.676 l -0.129,20.011 -10.781,1.755 -0.043,6.711 24.88,2.691 0.296,0.002 3.667,-2.744 0.565,-87.935 6.533,0.042 0.047,-7.417 c -1.96,-0.445 -4.193,-0.919 -6.703,-1.427 -2.506,-0.506 -5.253,-0.768 -8.233,-0.788 -2.397,-0.015 -4.262,0.502 -5.604,1.554 -1.342,1.051 -2.02,2.969 -2.038,5.755 l -0.014,2.296 C 11.749,-2.241 10.59,-3.455 9.24,-4.621 7.894,-5.788 6.371,-6.817 4.672,-7.711 2.968,-8.604 1.111,-9.323 -0.909,-9.867 c -2.016,-0.542 -4.183,-0.821 -6.497,-0.836" /></g><g
           transform="translate(586.677,279.1703)"
           id="g32"><path
             id="path34"
             style="fill:#212849;fill-opacity:1;fill-rule:nonzero;stroke:none"
             d="m 0,0 c 0.707,0.005 1.51,0.107 2.41,0.309 0.9,0.202 1.84,0.483 2.822,0.843 0.977,0.359 1.935,0.786 2.874,1.284 0.94,0.496 1.759,1.06 2.461,1.693 L 10.442,23.611 C 6.636,23.586 3.448,23.214 0.884,22.491 -1.681,21.768 -3.724,20.812 -5.249,19.627 -6.771,18.439 -7.85,17.078 -8.488,15.543 -9.125,14.009 -9.439,12.379 -9.428,10.651 -9.406,7.159 -8.596,4.507 -6.995,2.692 -5.394,0.878 -3.063,-0.02 0,0 m -28.01,7.707 c -0.018,2.903 0.485,5.477 1.51,7.72 1.025,2.245 2.445,4.215 4.259,5.915 1.814,1.698 3.955,3.144 6.419,4.338 2.464,1.192 5.124,2.181 7.983,2.964 2.86,0.784 5.84,1.362 8.938,1.735 3.097,0.373 6.196,0.608 9.295,0.709 l -0.018,2.825 c -0.029,4.472 -0.962,7.654 -2.799,9.545 -1.837,1.892 -4.834,2.824 -8.992,2.798 -2.121,-0.014 -4.247,-0.194 -6.384,-0.541 -2.137,-0.348 -4.183,-0.772 -6.143,-1.275 -1.96,-0.504 -3.77,-1.066 -5.434,-1.684 -1.664,-0.62 -3.081,-1.207 -4.255,-1.764 l -0.06,-10e-4 -3.525,7.866 c 0.822,0.673 2.208,1.553 4.164,2.646 1.952,1.092 4.302,2.156 7.043,3.194 2.738,1.039 5.773,1.941 9.107,2.708 3.327,0.766 6.761,1.162 10.291,1.184 4.356,0.028 8.058,-0.419 11.104,-1.342 3.046,-0.921 5.531,-2.358 7.447,-4.307 1.915,-1.95 3.322,-4.423 4.224,-7.42 0.902,-2.995 1.366,-6.535 1.392,-10.614 l 0.236,-36.73 7.299,0.047 0.047,-7.239 c -0.743,-0.162 -1.666,-0.374 -2.763,-0.635 -1.094,-0.263 -2.312,-0.505 -3.642,-0.73 -1.333,-0.224 -2.764,-0.42 -4.296,-0.587 -1.528,-0.167 -3.098,-0.255 -4.706,-0.266 -1.414,-0.009 -2.618,0.041 -3.621,0.153 -0.999,0.111 -1.809,0.381 -2.417,0.809 -0.613,0.428 -1.058,1.042 -1.336,1.846 -0.282,0.802 -0.427,1.889 -0.436,3.264 l -0.022,3.414 C 11.239,-2.656 10.322,-3.662 9.155,-4.769 7.984,-5.874 6.566,-6.924 4.905,-7.915 3.243,-8.907 1.356,-9.733 -0.76,-10.395 c -2.112,-0.66 -4.447,-0.999 -6.997,-1.015 -2.786,-0.018 -5.398,0.339 -7.834,1.067 -2.439,0.731 -4.574,1.874 -6.409,3.431 -1.835,1.559 -3.291,3.55 -4.365,5.978 -1.074,2.425 -1.623,5.305 -1.645,8.641" /></g><g
           transform="translate(233.0814,348.3202)"
           id="g36"><path
             id="path38"
             style="fill:#ffd600;fill-opacity:1;fill-rule:nonzero;stroke:none"
             d="m 0,0 -16.891,29.259 c -4.794,-2.065 -9.255,-4.732 -13.372,-7.834 L -17.857,0 Z" /></g><g
           transform="translate(234.0572,339.5645)"
           id="g40"><path
             id="path42"
             style="fill:#ffd600;fill-opacity:1;fill-rule:nonzero;stroke:none"
             d="M 0,0 H -6.633 L 7.806,-26.311 22.244,0 h -6.748 v 42.823 c -2.513,0.295 -5.057,0.488 -7.649,0.488 -2.661,0 -5.269,-0.208 -7.847,-0.518 z" /></g><g
           transform="translate(268.4427,348.3202)"
           id="g44"><path
             id="path46"
             style="fill:#ffd600;fill-opacity:1;fill-rule:nonzero;stroke:none"
             d="m 0,0 12.387,21.545 c -4.127,3.089 -8.59,5.75 -13.392,7.8 L -17.93,0 Z" /></g><g
           transform="translate(234.221,276.4622)"
           id="g48"><path
             id="path50"
             style="fill:#ffd600;fill-opacity:1;fill-rule:nonzero;stroke:none"
             d="m 0,0 0.036,-23.428 c 2.512,-0.295 5.056,-0.488 7.647,-0.488 2.662,0 5.271,0.208 7.849,0.519 L 15.496,0 Z" /></g><g
           transform="translate(307.0296,317.7109)"
           id="g52"><path
             id="path54"
             style="fill:#ffd600;fill-opacity:1;fill-rule:nonzero;stroke:none"
             d="M 0,0 C 0,2.663 -0.207,5.273 -0.518,7.852 L -36.221,7.797 -5.293,25.728 c -2.063,4.798 -4.729,9.261 -7.83,13.382 l -14.909,-8.644 v -7.149 l -5.757,-1.463 -20.997,-34.869 v -19.816 l 10.71,-1.322 v -7.096 h -6.119 l 10.782,-18.62 c 4.794,2.065 9.255,4.732 13.372,7.834 l -17.885,30.887 30.924,-17.801 c 3.088,4.13 5.748,8.597 7.797,13.402 l -30.99,17.839 35.708,0.054 C -0.193,-5.139 0,-2.594 0,0" /></g><g
           transform="translate(220.7713,276.4622)"
           id="g56"><path
             id="path58"
             style="fill:#ffd600;fill-opacity:1;fill-rule:nonzero;stroke:none"
             d="m 0,0 v 7.096 l 10.711,1.322 v 19.815 l -20.997,34.869 -5.757,1.464 v 7.027 l -14.948,8.604 c -3.087,-4.13 -5.747,-8.596 -7.796,-13.401 l 30.991,-17.84 -35.709,-0.054 c -0.295,-2.515 -0.488,-5.06 -0.488,-7.653 0,-2.663 0.208,-5.273 0.518,-7.853 L -7.772,33.451 -38.7,15.521 c 2.064,-4.799 4.73,-9.262 7.83,-13.383 l 30.869,17.897 -17.791,-30.942 c 4.128,-3.089 8.591,-5.75 13.393,-7.8 L 6.357,0 Z" /></g><g
           transform="translate(358.1124,242.0338)"
           id="g60"><path
             id="path62"
             style="fill:#212849;fill-opacity:1;fill-rule:nonzero;stroke:none"
             d="M 0,0 C 0.575,0.004 1.05,-0.034 1.423,-0.113 L 1.16,-2.776 c -0.405,0.094 -0.827,0.14 -1.264,0.138 -1.143,-0.008 -2.066,-0.386 -2.77,-1.136 -0.704,-0.75 -1.053,-1.72 -1.045,-2.911 l 0.045,-7.025 -2.855,-0.018 -0.087,13.441 2.237,0.014 0.391,-2.367 0.146,0.001 c 0.44,0.804 1.017,1.445 1.731,1.919 C -1.596,-0.246 -0.826,-0.005 0,0" /></g><g
           transform="translate(366.7648,239.9263)"
           id="g64"><path
             id="path66"
             style="fill:#212849;fill-opacity:1;fill-rule:nonzero;stroke:none"
             d="m 0,0 c -0.907,-0.006 -1.632,-0.299 -2.175,-0.877 -0.543,-0.579 -0.865,-1.42 -0.962,-2.522 l 6.1,0.039 C 2.939,-2.25 2.666,-1.412 2.145,-0.844 1.623,-0.276 0.907,0.006 0,0 m 0.599,-11.761 c -2.091,-0.013 -3.729,0.585 -4.916,1.797 -1.186,1.213 -1.787,2.888 -1.801,5.026 -0.014,2.196 0.522,3.925 1.608,5.188 1.085,1.263 2.584,1.901 4.496,1.913 1.774,0.011 3.18,-0.519 4.215,-1.589 1.037,-1.072 1.561,-2.551 1.573,-4.438 l 0.01,-1.544 -8.957,-0.058 c 0.048,-1.304 0.407,-2.304 1.077,-3.001 0.669,-0.696 1.606,-1.04 2.813,-1.032 0.794,0.005 1.533,0.084 2.218,0.238 0.683,0.154 1.416,0.409 2.2,0.762 l 0.015,-2.322 c -0.694,-0.336 -1.398,-0.575 -2.11,-0.717 -0.712,-0.143 -1.526,-0.217 -2.441,-0.223" /></g><g
           transform="translate(384.2142,232.3449)"
           id="g68"><path
             id="path70"
             style="fill:#212849;fill-opacity:1;fill-rule:nonzero;stroke:none"
             d="m 0,0 c 0.008,-1.312 -0.463,-2.322 -1.414,-3.029 -0.952,-0.707 -2.32,-1.066 -4.102,-1.078 -1.79,-0.011 -3.23,0.251 -4.319,0.787 l -0.016,2.467 c 1.585,-0.72 3.058,-1.074 4.419,-1.066 1.758,0.012 2.633,0.547 2.626,1.609 -0.002,0.341 -0.1,0.623 -0.296,0.85 -0.196,0.225 -0.518,0.457 -0.965,0.698 -0.447,0.24 -1.068,0.511 -1.864,0.815 -1.552,0.588 -2.603,1.181 -3.153,1.777 -0.551,0.596 -0.83,1.373 -0.836,2.329 -0.007,1.15 0.45,2.046 1.374,2.689 0.923,0.641 2.183,0.968 3.78,0.978 1.58,0.01 3.077,-0.301 4.49,-0.931 L -1.186,6.738 C -2.64,7.328 -3.861,7.62 -4.85,7.614 -6.357,7.604 -7.107,7.169 -7.101,6.311 -7.099,5.889 -6.9,5.534 -6.506,5.245 -6.11,4.956 -5.251,4.56 -3.928,4.059 -2.814,3.636 -2.006,3.248 -1.501,2.895 -0.997,2.542 -0.621,2.133 -0.375,1.669 -0.129,1.204 -0.004,0.648 0,0" /></g><g
           transform="translate(391.9762,240.0883)"
           id="g72"><path
             id="path74"
             style="fill:#212849;fill-opacity:1;fill-rule:nonzero;stroke:none"
             d="m 0,0 c -0.907,-0.006 -1.632,-0.299 -2.175,-0.877 -0.543,-0.579 -0.865,-1.42 -0.962,-2.522 l 6.1,0.039 C 2.939,-2.25 2.666,-1.412 2.145,-0.844 1.623,-0.276 0.907,0.006 0,0 m 0.599,-11.761 c -2.091,-0.013 -3.729,0.585 -4.916,1.798 -1.186,1.212 -1.787,2.887 -1.801,5.025 -0.014,2.196 0.522,3.925 1.608,5.188 1.085,1.263 2.584,1.901 4.496,1.913 1.774,0.011 3.18,-0.519 4.215,-1.589 1.037,-1.072 1.561,-2.551 1.573,-4.438 l 0.01,-1.544 -8.957,-0.058 c 0.048,-1.304 0.407,-2.304 1.077,-3.001 0.669,-0.696 1.606,-1.04 2.813,-1.032 0.794,0.005 1.533,0.084 2.218,0.238 0.683,0.154 1.416,0.409 2.2,0.762 l 0.015,-2.322 c -0.694,-0.336 -1.398,-0.575 -2.11,-0.717 -0.712,-0.143 -1.526,-0.217 -2.441,-0.223" /></g><g
           transform="translate(404.5658,230.5919)"
           id="g76"><path
             id="path78"
             style="fill:#212849;fill-opacity:1;fill-rule:nonzero;stroke:none"
             d="M 0,0 C 1.037,0.007 1.867,0.302 2.491,0.885 3.116,1.468 3.425,2.283 3.418,3.328 L 3.411,4.495 1.686,4.41 C 0.34,4.353 -0.637,4.122 -1.246,3.717 -1.854,3.312 -2.156,2.696 -2.151,1.87 -2.147,1.27 -1.966,0.808 -1.608,0.482 -1.249,0.156 -0.713,-0.005 0,0 M 4.265,-1.917 3.683,-0.05 H 3.585 C 2.942,-0.873 2.293,-1.434 1.639,-1.734 0.985,-2.033 0.143,-2.187 -0.885,-2.193 c -1.321,-0.009 -2.354,0.341 -3.1,1.049 -0.746,0.708 -1.123,1.715 -1.132,3.019 -0.009,1.386 0.499,2.434 1.524,3.146 1.024,0.711 2.589,1.105 4.696,1.184 L 3.423,6.294 3.419,7.01 C 3.413,7.869 3.208,8.51 2.805,8.932 2.401,9.355 1.777,9.564 0.935,9.559 0.246,9.555 -0.413,9.449 -1.044,9.243 -1.674,9.035 -2.281,8.792 -2.862,8.513 l -0.937,2.036 c 0.727,0.386 1.523,0.68 2.389,0.885 0.865,0.203 1.682,0.308 2.453,0.313 C 2.752,11.758 4.044,11.393 4.92,10.654 5.796,9.913 6.239,8.746 6.249,7.15 l 0.058,-9.054 z" /></g><g
           transform="translate(420.9666,242.4377)"
           id="g80"><path
             id="path82"
             style="fill:#212849;fill-opacity:1;fill-rule:nonzero;stroke:none"
             d="M 0,0 C 0.575,0.004 1.05,-0.034 1.423,-0.113 L 1.16,-2.776 c -0.405,0.094 -0.827,0.14 -1.264,0.138 -1.143,-0.008 -2.066,-0.386 -2.77,-1.136 -0.704,-0.75 -1.053,-1.72 -1.045,-2.911 l 0.045,-7.025 -2.855,-0.018 -0.087,13.441 2.237,0.014 0.391,-2.367 0.146,0.001 c 0.44,0.804 1.017,1.445 1.731,1.919 C -1.596,-0.246 -0.826,-0.005 0,0" /></g><g
           transform="translate(429.7668,228.5663)"
           id="g84"><path
             id="path86"
             style="fill:#212849;fill-opacity:1;fill-rule:nonzero;stroke:none"
             d="m 0,0 c -2.033,-0.013 -3.583,0.571 -4.648,1.75 -1.064,1.181 -1.605,2.881 -1.619,5.1 -0.014,2.261 0.528,4.003 1.626,5.225 1.098,1.223 2.692,1.84 4.782,1.854 1.418,0.009 2.696,-0.246 3.834,-0.765 L 3.127,10.861 C 1.917,11.323 0.918,11.552 0.133,11.547 -2.193,11.532 -3.345,9.981 -3.326,6.894 -3.316,5.387 -3.019,4.257 -2.435,3.503 -1.851,2.749 -1,2.375 0.118,2.383 1.39,2.391 2.591,2.715 3.722,3.354 L 3.738,0.863 C 3.229,0.56 2.685,0.341 2.107,0.208 1.529,0.075 0.826,0.005 0,0" /></g><g
           transform="translate(447.8703,228.9258)"
           id="g88"><path
             id="path90"
             style="fill:#212849;fill-opacity:1;fill-rule:nonzero;stroke:none"
             d="m 0,0 -2.868,-0.018 -0.053,8.263 c -0.007,1.037 -0.22,1.81 -0.64,2.317 -0.421,0.508 -1.085,0.759 -1.992,0.753 -1.2,-0.008 -2.078,-0.372 -2.637,-1.092 C -8.749,9.503 -9.022,8.3 -9.011,6.614 l 0.042,-6.672 -2.855,-0.018 -0.121,18.91 2.855,0.018 0.031,-4.801 c 0.005,-0.769 -0.039,-1.592 -0.13,-2.467 l 0.183,0.001 c 0.384,0.651 0.922,1.156 1.612,1.517 0.69,0.361 1.498,0.545 2.421,0.551 3.257,0.021 4.896,-1.609 4.917,-4.89 z" /></g><g
           transform="translate(462.3519,231.0853)"
           id="g92"><path
             id="path94"
             style="fill:#212849;fill-opacity:1;fill-rule:nonzero;stroke:none"
             d="M 0,0 C 1.174,0.008 2.027,0.343 2.557,1.007 3.088,1.67 3.356,2.743 3.364,4.226 L 3.361,4.627 C 3.35,6.32 3.067,7.522 2.511,8.231 1.955,8.94 1.091,9.291 -0.084,9.284 -1.089,9.277 -1.86,8.865 -2.397,8.048 -2.935,7.23 -3.199,6.067 -3.19,4.561 -3.18,3.07 -2.91,1.935 -2.378,1.158 -1.846,0.379 -1.054,-0.007 0,0 m -0.751,-2.314 c -1.677,-0.011 -2.99,0.588 -3.937,1.798 -0.948,1.208 -1.429,2.911 -1.443,5.107 -0.014,2.204 0.451,3.921 1.395,5.155 0.944,1.234 2.259,1.856 3.944,1.867 1.766,0.012 3.115,-0.632 4.047,-1.931 L 3.401,9.683 C 3.257,10.646 3.184,11.407 3.18,11.967 L 3.149,16.864 6.017,16.883 6.138,-2.027 3.902,-2.041 3.393,-0.283 3.259,-0.284 c -0.908,-1.342 -2.244,-2.019 -4.01,-2.03" /></g><g
           transform="translate(476.0946,231.0515)"
           id="g96"><path
             id="path98"
             style="fill:#212849;fill-opacity:1;fill-rule:nonzero;stroke:none"
             d="M 0,0 C 1.037,0.007 1.867,0.302 2.491,0.885 3.116,1.468 3.425,2.283 3.418,3.328 L 3.411,4.495 1.686,4.41 C 0.34,4.353 -0.637,4.122 -1.246,3.717 -1.854,3.312 -2.156,2.696 -2.151,1.87 -2.147,1.27 -1.966,0.808 -1.608,0.482 -1.249,0.156 -0.713,-0.005 0,0 M 4.265,-1.917 3.683,-0.05 H 3.585 C 2.942,-0.873 2.293,-1.434 1.639,-1.734 0.985,-2.033 0.143,-2.187 -0.885,-2.193 c -1.321,-0.009 -2.354,0.341 -3.1,1.049 -0.746,0.708 -1.123,1.715 -1.132,3.019 -0.009,1.386 0.499,2.434 1.524,3.146 1.024,0.711 2.589,1.105 4.696,1.184 L 3.423,6.294 3.419,7.01 C 3.413,7.869 3.208,8.51 2.805,8.932 2.401,9.355 1.777,9.564 0.935,9.559 0.246,9.555 -0.413,9.449 -1.044,9.243 -1.674,9.035 -2.281,8.792 -2.862,8.513 l -0.937,2.036 c 0.727,0.386 1.523,0.68 2.389,0.885 0.865,0.203 1.682,0.308 2.453,0.313 C 2.752,11.758 4.044,11.393 4.92,10.654 5.796,9.913 6.239,8.746 6.249,7.15 l 0.058,-9.054 z" /></g><g
           transform="translate(490.7595,231.2679)"
           id="g100"><path
             id="path102"
             style="fill:#212849;fill-opacity:1;fill-rule:nonzero;stroke:none"
             d="M 0,0 C 0.696,0.004 1.393,0.118 2.088,0.342 L 2.102,-1.81 C 1.787,-1.949 1.38,-2.067 0.883,-2.164 0.385,-2.26 -0.131,-2.31 -0.666,-2.314 c -2.706,-0.017 -4.068,1.4 -4.087,4.252 l -0.046,7.243 -1.835,-0.012 -0.008,1.264 1.962,1.058 0.954,2.85 1.762,0.011 0.019,-2.989 3.829,0.024 L 1.898,9.224 -1.931,9.2 -1.885,2.005 C -1.881,1.316 -1.704,0.809 -1.359,0.483 -1.012,0.158 -0.56,-0.004 0,0" /></g><g
           transform="translate(499.0706,231.1992)"
           id="g104"><path
             id="path106"
             style="fill:#212849;fill-opacity:1;fill-rule:nonzero;stroke:none"
             d="M 0,0 C 1.037,0.007 1.867,0.302 2.491,0.885 3.116,1.468 3.425,2.283 3.418,3.328 L 3.411,4.495 1.686,4.41 C 0.34,4.353 -0.637,4.122 -1.246,3.717 -1.854,3.312 -2.156,2.696 -2.151,1.87 -2.147,1.27 -1.966,0.808 -1.608,0.482 -1.249,0.156 -0.713,-0.005 0,0 M 4.265,-1.917 3.683,-0.05 H 3.585 C 2.942,-0.873 2.293,-1.434 1.639,-1.734 0.985,-2.033 0.143,-2.187 -0.885,-2.193 c -1.321,-0.009 -2.354,0.341 -3.1,1.049 -0.746,0.708 -1.123,1.715 -1.132,3.019 -0.009,1.386 0.499,2.434 1.524,3.146 1.024,0.711 2.589,1.105 4.696,1.184 L 3.423,6.294 3.419,7.01 C 3.413,7.869 3.208,8.51 2.805,8.932 2.401,9.355 1.777,9.564 0.935,9.559 0.246,9.555 -0.413,9.449 -1.044,9.243 -1.674,9.035 -2.281,8.792 -2.862,8.513 l -0.937,2.036 c 0.727,0.386 1.523,0.68 2.389,0.885 0.865,0.203 1.682,0.308 2.453,0.313 C 2.752,11.758 4.044,11.393 4.92,10.654 5.796,9.913 6.239,8.746 6.249,7.15 l 0.058,-9.054 z" /></g><g
           transform="translate(525.9107,229.4273)"
           id="g108"><path
             id="path110"
             style="fill:#212849;fill-opacity:1;fill-rule:nonzero;stroke:none"
             d="m 0,0 -2.868,-0.018 -0.053,8.287 c -0.007,1.03 -0.206,1.796 -0.598,2.3 -0.392,0.504 -1.002,0.753 -1.828,0.747 -1.102,-0.007 -1.908,-0.37 -2.418,-1.09 -0.51,-0.72 -0.759,-1.915 -0.749,-3.584 l 0.043,-6.696 -2.855,-0.019 -0.086,13.441 2.236,0.015 0.412,-1.76 0.146,0.001 c 0.368,0.643 0.906,1.14 1.613,1.493 0.706,0.353 1.485,0.532 2.336,0.538 2.065,0.013 3.439,-0.683 4.121,-2.089 l 0.194,10e-4 c 0.393,0.668 0.949,1.19 1.667,1.567 0.719,0.377 1.544,0.569 2.476,0.575 1.604,0.011 2.775,-0.387 3.514,-1.193 0.738,-0.805 1.113,-2.039 1.124,-3.699 L 8.483,0.055 5.627,0.036 5.574,8.324 C 5.567,9.353 5.366,10.12 4.97,10.624 4.573,11.127 3.962,11.376 3.136,11.371 2.026,11.364 1.215,11.013 0.705,10.316 0.195,9.621 -0.055,8.555 -0.046,7.122 Z" /></g><g
           transform="translate(541.9018,231.4744)"
           id="g112"><path
             id="path114"
             style="fill:#212849;fill-opacity:1;fill-rule:nonzero;stroke:none"
             d="M 0,0 C 1.037,0.007 1.867,0.302 2.491,0.885 3.116,1.468 3.425,2.283 3.418,3.328 L 3.411,4.495 1.686,4.41 C 0.34,4.353 -0.637,4.122 -1.246,3.717 -1.854,3.312 -2.156,2.696 -2.151,1.87 -2.147,1.27 -1.966,0.808 -1.608,0.482 -1.249,0.156 -0.713,-0.005 0,0 M 4.265,-1.917 3.683,-0.05 H 3.585 C 2.942,-0.873 2.293,-1.434 1.639,-1.734 0.985,-2.033 0.143,-2.187 -0.885,-2.193 c -1.321,-0.009 -2.354,0.341 -3.1,1.049 -0.746,0.708 -1.123,1.715 -1.132,3.019 -0.009,1.386 0.499,2.434 1.524,3.146 1.024,0.711 2.589,1.105 4.696,1.184 L 3.424,6.294 3.419,7.01 C 3.413,7.869 3.208,8.51 2.805,8.932 2.401,9.355 1.777,9.564 0.935,9.559 0.246,9.555 -0.413,9.449 -1.044,9.243 -1.674,9.035 -2.281,8.792 -2.862,8.513 l -0.937,2.036 c 0.727,0.386 1.523,0.68 2.389,0.885 0.866,0.203 1.682,0.308 2.453,0.313 C 2.752,11.758 4.044,11.393 4.92,10.654 5.796,9.913 6.239,8.746 6.249,7.15 l 0.058,-9.054 z" /></g><g
           transform="translate(563.3972,229.6682)"
           id="g116"><path
             id="path118"
             style="fill:#212849;fill-opacity:1;fill-rule:nonzero;stroke:none"
             d="m 0,0 -2.868,-0.018 -0.053,8.263 c -0.007,1.037 -0.22,1.81 -0.64,2.317 -0.421,0.508 -1.085,0.759 -1.992,0.753 -1.207,-0.008 -2.089,-0.37 -2.643,-1.086 -0.555,-0.717 -0.826,-1.914 -0.816,-3.59 l 0.043,-6.697 -2.855,-0.018 -0.086,13.441 2.236,0.015 0.412,-1.761 0.146,10e-4 c 0.4,0.644 0.972,1.141 1.716,1.495 0.743,0.352 1.568,0.532 2.475,0.538 3.225,0.021 4.848,-1.609 4.869,-4.89 z" /></g><g
           transform="translate(570.8934,231.6607)"
           id="g120"><path
             id="path122"
             style="fill:#212849;fill-opacity:1;fill-rule:nonzero;stroke:none"
             d="M 0,0 C 1.037,0.007 1.867,0.302 2.491,0.885 3.116,1.468 3.425,2.283 3.418,3.328 L 3.411,4.495 1.686,4.41 C 0.34,4.353 -0.637,4.122 -1.246,3.717 -1.854,3.312 -2.156,2.696 -2.151,1.87 -2.147,1.27 -1.966,0.808 -1.608,0.482 -1.249,0.156 -0.713,-0.005 0,0 M 4.265,-1.917 3.683,-0.05 H 3.585 C 2.942,-0.873 2.293,-1.434 1.639,-1.734 0.985,-2.033 0.143,-2.187 -0.885,-2.193 c -1.321,-0.009 -2.354,0.341 -3.1,1.049 -0.746,0.708 -1.123,1.715 -1.132,3.019 -0.009,1.386 0.499,2.434 1.524,3.146 1.024,0.711 2.589,1.105 4.696,1.184 L 3.424,6.294 3.419,7.01 C 3.413,7.869 3.208,8.51 2.805,8.932 2.401,9.355 1.777,9.564 0.935,9.559 0.246,9.555 -0.413,9.449 -1.044,9.243 -1.674,9.035 -2.281,8.792 -2.862,8.513 l -0.937,2.036 c 0.727,0.386 1.523,0.68 2.389,0.885 0.866,0.203 1.682,0.308 2.453,0.313 C 2.752,11.758 4.044,11.393 4.92,10.654 5.796,9.913 6.239,8.746 6.249,7.15 l 0.058,-9.054 z" /></g><g
           transform="translate(582.524,238.8821)"
           id="g124"><path
             id="path126"
             style="fill:#212849;fill-opacity:1;fill-rule:nonzero;stroke:none"
             d="m 0,0 c 0.005,-0.843 0.225,-1.49 0.662,-1.941 0.436,-0.45 1.06,-0.673 1.87,-0.668 1.653,0.011 2.473,0.899 2.462,2.666 C 4.988,0.931 4.78,1.604 4.368,2.076 3.955,2.547 3.332,2.78 2.498,2.775 1.671,2.77 1.046,2.53 0.624,2.058 0.202,1.585 -0.006,0.899 0,0 m -1.156,-11.188 c 0.004,-0.617 0.285,-1.088 0.841,-1.418 0.557,-0.328 1.339,-0.489 2.344,-0.483 1.555,0.01 2.712,0.241 3.471,0.691 0.759,0.451 1.136,1.045 1.131,1.782 -0.004,0.583 -0.216,0.997 -0.634,1.241 -0.42,0.245 -1.196,0.364 -2.33,0.356 L 1.503,-9.033 c -0.818,-0.005 -1.466,-0.201 -1.946,-0.589 -0.48,-0.388 -0.717,-0.91 -0.713,-1.566 M 9.305,4.41 9.315,2.842 7.021,2.403 C 7.234,2.12 7.41,1.773 7.55,1.361 7.69,0.949 7.763,0.512 7.765,0.05 7.774,-1.336 7.303,-2.429 6.352,-3.229 5.401,-4.029 4.087,-4.435 2.41,-4.446 1.981,-4.448 1.592,-4.419 1.243,-4.355 0.629,-4.74 0.324,-5.187 0.328,-5.698 0.33,-6.006 0.475,-6.236 0.764,-6.388 1.052,-6.54 1.582,-6.614 2.351,-6.609 l 2.346,0.015 c 1.482,0.01 2.61,-0.299 3.384,-0.926 0.774,-0.627 1.165,-1.536 1.173,-2.726 0.009,-1.524 -0.611,-2.703 -1.862,-3.537 -1.25,-0.835 -3.063,-1.26 -5.436,-1.275 -1.831,-0.012 -3.231,0.303 -4.199,0.946 -0.968,0.642 -1.457,1.562 -1.464,2.761 -0.006,0.826 0.251,1.523 0.77,2.089 0.519,0.567 1.248,0.962 2.186,1.187 -0.382,0.159 -0.697,0.419 -0.946,0.778 -0.25,0.359 -0.376,0.737 -0.379,1.134 -0.003,0.502 0.136,0.928 0.418,1.278 0.281,0.351 0.7,0.698 1.257,1.042 -0.699,0.295 -1.267,0.779 -1.705,1.453 -0.438,0.673 -0.66,1.464 -0.665,2.372 -0.01,1.458 0.443,2.591 1.358,3.4 C -0.5,4.189 0.808,4.599 2.509,4.61 2.89,4.612 3.29,4.589 3.707,4.539 4.125,4.489 4.439,4.436 4.651,4.381 Z" /></g><g
           transform="translate(599.0568,241.4191)"
           id="g128"><path
             id="path130"
             style="fill:#212849;fill-opacity:1;fill-rule:nonzero;stroke:none"
             d="m 0,0 c -0.907,-0.006 -1.632,-0.299 -2.175,-0.877 -0.543,-0.579 -0.865,-1.42 -0.962,-2.522 l 6.1,0.039 C 2.939,-2.25 2.666,-1.412 2.145,-0.844 1.623,-0.276 0.907,0.006 0,0 m 0.599,-11.761 c -2.091,-0.013 -3.729,0.585 -4.916,1.798 -1.186,1.212 -1.787,2.887 -1.801,5.025 -0.014,2.196 0.522,3.925 1.608,5.188 1.085,1.263 2.584,1.901 4.496,1.913 1.774,0.011 3.18,-0.519 4.215,-1.589 1.037,-1.072 1.561,-2.551 1.573,-4.438 l 0.01,-1.544 -8.957,-0.058 c 0.048,-1.304 0.407,-2.304 1.077,-3.001 0.669,-0.696 1.606,-1.04 2.813,-1.032 0.794,0.005 1.533,0.084 2.218,0.238 0.683,0.154 1.416,0.409 2.2,0.762 l 0.015,-2.322 c -0.694,-0.336 -1.398,-0.575 -2.11,-0.717 -0.712,-0.143 -1.526,-0.217 -2.441,-0.223" /></g><g
           transform="translate(618.8287,230.0244)"
           id="g132"><path
             id="path134"
             style="fill:#212849;fill-opacity:1;fill-rule:nonzero;stroke:none"
             d="m 0,0 -2.868,-0.018 -0.053,8.287 c -0.007,1.03 -0.206,1.796 -0.598,2.3 -0.392,0.504 -1.002,0.753 -1.828,0.747 -1.102,-0.007 -1.908,-0.37 -2.418,-1.09 -0.51,-0.72 -0.759,-1.915 -0.749,-3.584 l 0.043,-6.696 -2.855,-0.019 -0.086,13.441 2.236,0.015 0.412,-1.76 0.146,0.001 c 0.368,0.643 0.906,1.14 1.613,1.493 0.706,0.353 1.485,0.532 2.336,0.538 2.065,0.013 3.439,-0.683 4.121,-2.089 l 0.194,10e-4 c 0.393,0.668 0.949,1.19 1.667,1.567 0.719,0.377 1.544,0.569 2.476,0.575 1.604,0.01 2.775,-0.387 3.513,-1.193 0.739,-0.805 1.114,-2.039 1.125,-3.699 L 8.483,0.055 5.627,0.036 5.574,8.324 C 5.567,9.353 5.366,10.12 4.97,10.624 4.573,11.127 3.962,11.376 3.136,11.371 2.026,11.364 1.215,11.013 0.705,10.316 0.195,9.621 -0.055,8.555 -0.046,7.122 Z" /></g><g
           transform="translate(635.9487,241.6561)"
           id="g136"><path
             id="path138"
             style="fill:#212849;fill-opacity:1;fill-rule:nonzero;stroke:none"
             d="m 0,0 c -0.907,-0.006 -1.632,-0.299 -2.175,-0.877 -0.543,-0.579 -0.865,-1.42 -0.962,-2.522 l 6.1,0.039 C 2.939,-2.25 2.666,-1.412 2.145,-0.844 1.623,-0.276 0.907,0.006 0,0 m 0.599,-11.761 c -2.091,-0.013 -3.729,0.585 -4.916,1.798 -1.186,1.212 -1.787,2.887 -1.801,5.025 -0.014,2.196 0.522,3.925 1.608,5.188 1.085,1.263 2.584,1.901 4.496,1.913 1.774,0.011 3.18,-0.519 4.215,-1.589 1.037,-1.072 1.561,-2.551 1.573,-4.438 l 0.01,-1.544 -8.957,-0.058 c 0.048,-1.304 0.407,-2.304 1.077,-3.001 0.669,-0.696 1.606,-1.04 2.813,-1.032 0.794,0.005 1.533,0.084 2.218,0.238 0.683,0.154 1.416,0.409 2.2,0.762 l 0.015,-2.322 c -0.694,-0.336 -1.398,-0.575 -2.11,-0.717 -0.712,-0.143 -1.526,-0.217 -2.441,-0.223" /></g><g
           transform="translate(656.2176,230.2647)"
           id="g140"><path
             id="path142"
             style="fill:#212849;fill-opacity:1;fill-rule:nonzero;stroke:none"
             d="m 0,0 -2.868,-0.018 -0.053,8.263 c -0.007,1.037 -0.22,1.81 -0.64,2.317 -0.421,0.508 -1.085,0.759 -1.992,0.753 -1.207,-0.008 -2.089,-0.37 -2.643,-1.086 -0.555,-0.717 -0.826,-1.914 -0.816,-3.59 l 0.043,-6.697 -2.855,-0.018 -0.086,13.441 2.236,0.015 0.412,-1.761 0.146,10e-4 c 0.4,0.644 0.972,1.141 1.716,1.495 0.743,0.352 1.568,0.532 2.475,0.538 3.225,0.021 4.848,-1.609 4.869,-4.89 z" /></g><g
           transform="translate(664.5635,232.3847)"
           id="g144"><path
             id="path146"
             style="fill:#212849;fill-opacity:1;fill-rule:nonzero;stroke:none"
             d="M 0,0 C 0.696,0.004 1.393,0.118 2.088,0.342 L 2.102,-1.81 C 1.787,-1.949 1.38,-2.067 0.883,-2.164 0.385,-2.26 -0.131,-2.31 -0.666,-2.314 c -2.706,-0.017 -4.068,1.4 -4.087,4.252 l -0.046,7.243 -1.835,-0.012 -0.008,1.264 1.962,1.058 0.954,2.85 1.762,0.011 0.019,-2.989 3.829,0.024 L 1.898,9.224 -1.931,9.2 -1.885,2.005 C -1.881,1.316 -1.704,0.809 -1.359,0.483 -1.012,0.158 -0.56,-0.004 0,0" /></g></g></g></g></svg>
