<?xml version="1.0" encoding="UTF-8" standalone="no"?>
<svg
   viewBox="0 0 211.44187 71.822661"
   height="71.822662"
   width="211.44186"
   xml:space="preserve"
   id="svg2"
   version="1.1"
   xmlns="http://www.w3.org/2000/svg"
   xmlns:svg="http://www.w3.org/2000/svg"
   xmlns:rdf="http://www.w3.org/1999/02/22-rdf-syntax-ns#"
   xmlns:cc="http://creativecommons.org/ns#"
   xmlns:dc="http://purl.org/dc/elements/1.1/"><metadata
     id="metadata8"><rdf:RDF><cc:Work
         rdf:about=""><dc:format>image/svg+xml</dc:format><dc:type
           rdf:resource="http://purl.org/dc/dcmitype/StillImage" /></cc:Work></rdf:RDF></metadata><defs
     id="defs6"><clipPath
       id="clipPath22"
       clipPathUnits="userSpaceOnUse"><path
         id="path20"
         d="m 45.355,63.775 c 0,-14.875 12.058,-26.933 26.934,-26.933 v 0 c 14.875,0 26.932,12.058 26.932,26.933 v 0 c 0,14.873 -12.057,26.934 -26.932,26.934 v 0 c -14.876,0 -26.934,-12.061 -26.934,-26.934" /></clipPath><clipPath
       id="clipPath38"
       clipPathUnits="userSpaceOnUse"><path
         id="path36"
         d="M 0,127.559 H 323.149 V 0 H 0 Z" /></clipPath></defs><g
     transform="matrix(1.3333333,0,0,-1.3333333,-60.473331,120.94533)"
     id="g10"><g
       transform="translate(68.095,89.8029)"
       id="g12"><path
         id="path14"
         style="fill:#ffcd00;fill-opacity:1;fill-rule:nonzero;stroke:none"
         d="M 0,0 0.511,0.655 1.377,0.76 2.031,0.247 H 6.352 L 7.006,0.76 7.87,0.655 8.383,0.001 l 4.197,-1.035 0.757,0.343 0.814,-0.31 0.341,-0.759 3.822,-2.004 0.817,0.149 0.716,-0.493 0.15,-0.82 3.236,-2.864 0.828,-0.052 0.576,-0.651 -0.049,-0.83 2.451,-3.551 0.794,-0.248 0.407,-0.771 -0.247,-0.793 1.532,-4.041 0.713,-0.43 0.207,-0.845 -0.429,-0.711 0.519,-4.289 0.587,-0.588 v -0.873 l -0.587,-0.586 -0.519,-4.285 0.431,-0.711 -0.207,-0.848 -0.713,-0.428 -1.532,-4.041 0.247,-0.793 -0.407,-0.773 -0.792,-0.246 -2.455,-3.555 0.049,-0.832 -0.576,-0.65 -0.828,-0.049 -3.232,-2.864 -0.15,-0.818 -0.715,-0.496 -0.818,0.152 -3.827,-2.007 -0.34,-0.76 -0.814,-0.309 -0.758,0.342 -4.191,-1.035 -0.513,-0.654 -0.865,-0.104 -0.653,0.514 H 2.035 l -0.654,-0.514 -0.864,0.104 -0.513,0.654 -4.196,1.035 -0.757,-0.342 -0.814,0.309 -0.343,0.76 -3.821,2.003 -0.817,-0.15 -0.717,0.496 -0.149,0.819 -3.236,2.865 -0.829,0.049 -0.578,0.65 0.049,0.832 -2.451,3.549 -0.794,0.248 -0.405,0.771 0.247,0.795 -1.532,4.041 -0.711,0.428 -0.209,0.848 0.43,0.709 -0.521,4.291 -0.588,0.586 v 0.873 l 0.588,0.588 0.52,4.283 -0.431,0.713 0.209,0.845 0.711,0.43 1.533,4.041 -0.248,0.793 0.405,0.772 0.793,0.248 2.455,3.554 -0.05,0.83 0.578,0.651 0.829,0.052 3.231,2.862 0.149,0.818 0.718,0.495 0.817,-0.151 3.826,2.008 0.342,0.759 0.814,0.31 0.757,-0.343 z" /></g><g
       id="g16"><g
         clip-path="url(#clipPath22)"
         id="g18"><g
           transform="translate(81.5281,38.2341)"
           id="g24"><path
             id="path26"
             style="fill:#000000;fill-opacity:1;fill-rule:nonzero;stroke:none"
             d="m 0,0 -6.66,15.08 1.114,-16.449 m -12.933,52.452 6.66,-15.081 -1.114,16.449 m -11.387,-4.32 10.074,-13.051 -5.016,15.707 m -10.028,-6.924 12.906,-10.258 -8.63,14.047 m -8.077,-9.117 14.986,-6.875 -11.74,11.576 m -5.664,-10.787 16.195,-3.086 -14.168,8.426 m -2.916,-11.828 16.463,0.877 -15.775,4.793 m 0,-12.182 15.775,4.793 -16.463,0.879 m 2.916,-11.83 14.168,8.43 -16.195,-3.086 m 5.664,-10.789 11.74,11.574 -14.986,-6.875 m 8.077,-9.115 8.63,14.048 L -29.29,7.217 M -19.262,0.295 -14.246,16 -24.32,2.949 M -12.933,-1.369 -11.819,15.08 -18.479,0 M -6.383,-1.469 -9.239,14.768 -12.096,-1.469 M 5.842,2.949 -4.233,16 0.782,0.295 M 10.809,7.217 -2.095,17.478 6.534,3.43 M 14.611,12.545 -0.373,19.42 11.365,7.846 m 5.662,10.789 -16.192,3.086 14.166,-8.43 M 17.918,25.121 1.456,24.242 17.23,19.449 m 0,12.182 L 1.456,26.838 17.918,25.961 M 15.001,37.789 0.835,29.363 17.027,32.449 M 11.365,43.236 -0.373,31.66 14.611,38.535 M 6.534,47.652 -2.095,33.605 10.809,43.863 M 0.782,50.787 -4.233,35.08 5.842,48.131 M -5.546,52.451 -6.66,36.002 0,51.083 m -6.383,1.469 -2.856,-16.238 -2.857,16.238" /></g><g
           transform="translate(52.5271,77.4079)"
           id="g28"><path
             id="path30"
             style="fill:#ffffff;fill-opacity:1;fill-rule:nonzero;stroke:none"
             d="M 0,0 C 0.305,0.441 0.195,1.047 -0.247,1.352 -0.69,1.656 -1.296,1.547 -1.601,1.104 -1.906,0.662 -1.795,0.057 -1.352,-0.248 -0.911,-0.555 -0.305,-0.443 0,0 m 18.788,-38.613 c 0,-0.539 0.435,-0.973 0.974,-0.973 0.537,0 0.973,0.434 0.973,0.973 0,0.539 -0.436,0.974 -0.973,0.974 -0.539,0 -0.974,-0.435 -0.974,-0.974 M 39.521,0 c 0.304,-0.443 0.913,-0.555 1.354,-0.248 0.442,0.305 0.552,0.91 0.247,1.352 C 40.818,1.547 40.213,1.656 39.771,1.352 39.327,1.047 39.217,0.441 39.521,0 M 19.762,10.374 c 0.537,0 0.973,0.435 0.973,0.973 0,0.537 -0.436,0.972 -0.973,0.972 -0.539,0 -0.974,-0.435 -0.974,-0.972 0,-0.538 0.435,-0.973 0.974,-0.973 M 12.898,8.527 c 0.398,-0.033 0.826,-0.019 1.216,0.077 0.833,0.207 1.487,0.744 1.257,1.668 -0.131,0.526 -0.486,0.846 -1.497,0.823 -0.455,-0.014 -0.597,0.089 -0.634,0.24 -0.06,0.238 0.072,0.449 0.538,0.564 0.2,0.05 0.557,0.069 0.829,0.04 l 0.104,0.761 c -0.421,0.051 -0.835,0.051 -1.252,-0.052 -0.707,-0.178 -1.428,-0.752 -1.227,-1.558 0.18,-0.725 0.68,-0.842 1.151,-0.863 0.471,-0.02 0.917,0.056 1.004,-0.29 C 14.473,9.583 14.169,9.445 13.866,9.37 13.601,9.304 13.205,9.304 12.96,9.317 Z M 7.211,8.018 C 6.817,8.768 7.051,9.332 7.559,9.598 8.072,9.869 8.667,9.74 9.062,8.991 9.456,8.24 9.224,7.678 8.71,7.406 8.201,7.141 7.605,7.27 7.211,8.018 M 6.294,7.537 C 6.814,6.543 7.922,6.088 9.087,6.697 10.249,7.309 10.501,8.479 9.98,9.472 9.458,10.464 8.35,10.921 7.19,10.311 6.026,9.701 5.772,8.529 6.294,7.537 m -7.699,-30.664 c -0.016,0.4 -0.082,0.822 -0.225,1.197 -0.307,0.803 -0.917,1.385 -1.808,1.045 -0.506,-0.193 -0.78,-0.582 -0.636,-1.584 0.07,-0.453 -0.015,-0.603 -0.16,-0.658 -0.229,-0.09 -0.455,0.016 -0.625,0.463 -0.075,0.195 -0.137,0.547 -0.14,0.818 l -0.768,0.014 c 0,-0.426 0.049,-0.836 0.203,-1.238 0.261,-0.68 0.919,-1.325 1.694,-1.028 0.698,0.266 0.754,0.776 0.718,1.246 -0.036,0.469 -0.166,0.905 0.168,1.032 0.338,0.129 0.512,-0.157 0.624,-0.45 0.097,-0.253 0.146,-0.648 0.161,-0.894 z m 44.318,8.039 c -0.174,-0.359 -0.311,-0.764 -0.359,-1.162 -0.102,-0.852 0.169,-1.654 1.114,-1.768 0.536,-0.064 0.96,0.155 1.3,1.106 0.148,0.435 0.295,0.529 0.45,0.51 0.241,-0.028 0.393,-0.227 0.336,-0.702 -0.024,-0.207 -0.133,-0.548 -0.258,-0.791 l 0.676,-0.367 c 0.195,0.377 0.344,0.76 0.394,1.19 0.088,0.724 -0.195,1.601 -1.018,1.699 -0.744,0.09 -1.029,-0.338 -1.218,-0.768 -0.185,-0.433 -0.272,-0.879 -0.627,-0.836 -0.361,0.043 -0.381,0.377 -0.344,0.688 0.033,0.271 0.17,0.641 0.272,0.865 z M 30.458,8.993 c 0.393,0.751 0.988,0.878 1.496,0.611 C 32.467,9.335 32.7,8.772 32.307,8.02 31.914,7.271 31.316,7.143 30.804,7.412 c -0.509,0.266 -0.74,0.83 -0.346,1.581 m -0.92,0.481 C 29.017,8.48 29.271,7.309 30.436,6.697 c 1.16,-0.607 2.268,-0.152 2.79,0.842 0.52,0.992 0.266,2.164 -0.893,2.772 -1.165,0.611 -2.274,0.155 -2.795,-0.837 M 23.984,9.178 c 0.339,-0.215 0.724,-0.402 1.114,-0.497 0.833,-0.204 1.662,-0.033 1.889,0.892 0.128,0.526 -0.038,0.974 -0.943,1.425 -0.412,0.198 -0.488,0.355 -0.451,0.506 0.057,0.239 0.272,0.365 0.739,0.251 0.199,-0.049 0.525,-0.198 0.752,-0.351 l 0.445,0.625 c -0.348,0.241 -0.715,0.432 -1.132,0.536 -0.709,0.174 -1.612,-0.002 -1.811,-0.808 -0.176,-0.726 0.212,-1.062 0.619,-1.299 0.406,-0.238 0.838,-0.377 0.753,-0.724 C 25.871,9.381 25.537,9.401 25.234,9.474 24.968,9.538 24.618,9.722 24.407,9.849 Z M 0.39,5.293 3.237,2.518 C 3.432,2.719 3.629,2.912 3.831,3.105 L 2.059,4.959 4.864,4.031 C 5.126,4.252 5.392,4.467 5.663,4.676 L 3.291,7.867 2.5,7.244 4.18,5.186 1.271,6.158 M -4.743,-4.33 -3.18,-4.459 C -3.292,-4.74 -3.398,-5.018 -3.499,-5.301 l -1.248,0.959 z m -0.992,-0.149 3.258,-2.876 c 0.094,0.332 0.194,0.66 0.302,0.984 l -0.707,0.57 c 0.147,0.428 0.307,0.85 0.478,1.266 l 0.906,-0.041 c 0.14,0.324 0.287,0.65 0.44,0.969 L -5.36,-3.49 m -0.398,-6.545 c 0.387,-0.043 0.435,-0.408 0.406,-0.647 -0.015,-0.138 -0.034,-0.297 -0.046,-0.429 l -0.954,0.095 c 0.016,0.159 0.019,0.303 0.035,0.448 0.045,0.4 0.243,0.57 0.559,0.533 m -1.555,-1.955 4.014,-0.233 c 0.018,0.307 0.043,0.612 0.073,0.916 l -1.493,0.147 c 0.003,0.033 0.006,0.096 0.016,0.148 0.05,0.266 0.374,0.471 0.721,0.596 0.284,0.105 0.897,0.271 0.897,0.271 0.049,0.346 0.103,0.68 0.189,1.034 0,0 -1.05,-0.364 -1.428,-0.582 -0.241,-0.137 -0.375,-0.205 -0.525,-0.381 l -0.018,0.004 c -0.012,0.613 -0.375,1 -0.946,1.039 -0.698,0.051 -1.075,-0.58 -1.168,-1.348 l -0.173,0.014 m 0.256,-8.072 0.985,0.177 c -0.057,0.317 -0.108,0.637 -0.154,0.955 l 2.953,0.416 c -0.042,0.297 -0.083,0.616 -0.115,0.914 l -2.963,-0.298 c -0.035,0.33 -0.062,0.66 -0.083,0.986 l -0.991,-0.063 m 4.178,-12.828 2.999,0.881 0.006,-0.008 -1.912,-2.461 0.647,-0.832 2.379,3.43 c -0.212,0.293 -0.417,0.592 -0.615,0.895 l -4.028,-1.043 m 6.356,-7.385 2.505,3.082 c -0.658,0.531 -1.287,1.098 -1.883,1.699 L 2.76,-30.523 c 0.393,-0.397 0.799,-0.776 1.218,-1.143 l -2.045,-2.338 m 6.346,-4.164 1.699,3.598 c -0.767,0.359 -1.512,0.757 -2.235,1.197 l -0.444,-0.731 c 0.475,-0.289 0.961,-0.56 1.456,-0.816 l -1.434,-2.779 m 6.504,-2.365 0.884,3.89 c -0.296,0.067 -0.606,0.139 -0.898,0.217 l -1.035,-3.848 m 14.04,0.803 0.422,1.588 c -0.276,-0.086 -0.573,-0.174 -0.839,-0.248 l 0.369,-1.352 z m -2.532,-1.34 -0.161,0.988 c 0.519,0.088 1.037,0.192 1.616,0.327 l -0.163,0.648 c -0.524,-0.119 -0.976,-0.213 -1.443,-0.293 l -0.126,0.758 c 0.443,0.078 0.885,0.168 1.384,0.283 l -0.167,0.664 c -0.532,-0.125 -1.009,-0.219 -1.487,-0.299 l -0.14,0.842 c 0.779,0.131 1.552,0.303 2.315,0.516 l 0.294,-1.008 c 0.415,0.115 0.826,0.244 1.234,0.383 l 0.203,0.777 0.599,-1.346 -0.784,-2.503 m 5.356,2.238 -1.916,3.498 c -0.264,-0.149 -0.544,-0.295 -0.814,-0.432 l 1.777,-3.57 m 6.979,5.016 -0.703,0.71 c -0.226,-0.228 -0.46,-0.451 -0.7,-0.669 l -2.016,2.195 c -0.221,-0.203 -0.457,-0.416 -0.688,-0.611 l 1.927,-2.274 c -0.251,-0.215 -0.507,-0.422 -0.765,-0.627 l 0.621,-0.781 m 5.833,6.332 -3.319,2.207 c -0.165,-0.25 -0.345,-0.516 -0.52,-0.76 l 3.223,-2.332 m 3.857,7.686 -0.95,0.299 c -0.097,-0.307 -0.202,-0.614 -0.31,-0.918 l -2.807,1.005 c -0.1,-0.281 -0.21,-0.58 -0.324,-0.861 l 2.761,-1.115 c -0.121,-0.307 -0.251,-0.613 -0.385,-0.91 l 0.917,-0.408 m 2.262,13.285 -3.066,0.619 -0.002,0.01 2.837,1.293 -0.179,1.041 -3.707,-1.934 c 0.053,-0.361 0.093,-0.719 0.128,-1.08 l 4.049,-0.953 m -1.918,8.881 -3.703,-1.479 c 0.116,-0.281 0.23,-0.578 0.33,-0.859 l 3.75,1.332 M 37.599,6.746 35.559,4.4 C 35.978,4.031 36.384,3.65 36.775,3.256 L 36.17,2.654 c -0.597,0.602 -1.224,1.166 -1.881,1.7 l 2.506,3.072" /></g></g></g><g
       id="g32"><g
         clip-path="url(#clipPath38)"
         id="g34"><g
           transform="translate(75.9822,60.0837)"
           id="g40"><path
             id="path42"
             style="fill:#c00a35;fill-opacity:1;fill-rule:nonzero;stroke:none"
             d="m 0,0 c -0.304,-0.311 -0.725,-0.502 -1.192,-0.502 h -0.981 c -0.549,0 -1.036,-0.266 -1.34,-0.676 h -0.362 c -0.303,0.41 -0.791,0.676 -1.34,0.676 h -0.979 c -0.922,0 -1.668,0.746 -1.668,1.668 v 6.695" /></g><g
           transform="translate(68.1199,67.945)"
           id="g44"><path
             id="path46"
             style="fill:#ffffff;fill-opacity:1;fill-rule:nonzero;stroke:none"
             d="m 0,0 h 8.338 v -6.695 c 0,-0.457 -0.181,-0.866 -0.476,-1.166" /></g><g
           transform="translate(76.033,67.5173)"
           id="g48"><path
             id="path50"
             style="fill:#000000;fill-opacity:1;fill-rule:nonzero;stroke:none"
             d="m 0,0 h -7.488 v -6.246 c 0,-0.682 0.556,-1.24 1.243,-1.24 h 0.979 c 0.598,0 1.126,-0.25 1.508,-0.649 h 0.027 c 0.383,0.399 0.911,0.649 1.507,0.649 h 0.981 c 0.687,0 1.243,0.558 1.243,1.24 z m 0.86,-6.246 c 0,-1.16 -0.942,-2.1 -2.103,-2.1 h -0.981 c -0.514,0 -0.956,-0.314 -1.145,-0.759 h -0.752 c -0.188,0.445 -0.629,0.759 -1.145,0.759 h -0.979 c -1.162,0 -2.103,0.94 -2.103,2.1 V 0.863 H 0.86 Z" /></g><g
           transform="translate(174.0151,68.543)"
           id="g52"><path
             id="path54"
             style="fill:#ffffff;fill-opacity:1;fill-rule:nonzero;stroke:none"
             d="m 0,0 c 0,-0.784 0.359,-1.118 0.972,-1.118 0.508,0 0.992,0.316 1.61,1.056 L 2.879,-0.654 C 2.242,-1.796 0.972,-2.58 -0.192,-2.58 c -1.439,0 -2.392,0.807 -2.392,2.625 v 5.077 h -1.12 v 0.555 c 1.271,0.527 2.709,2.073 3.087,3.257 H 0 V 6.288 H 2.768 L 2.457,5.122 H 0 Z m -11.898,-0.211 c 0,-1.332 0.361,-1.46 1.101,-1.46 h 0.211 v -0.676 h -5.358 v 0.676 h 0.302 c 1.081,0 1.163,0.425 1.163,1.547 v 9.249 c 0,0.611 -0.108,0.761 -0.678,0.952 l -0.614,0.211 v 0.488 l 3.366,1.036 h 0.507 V 4.914 c 1.187,0.825 2.707,1.607 3.808,1.607 1.551,0 2.312,-1.246 2.312,-3.745 v -2.797 c 0,-1.25 0.145,-1.65 0.952,-1.65 h 0.207 v -0.676 h -4.994 v 0.676 h 0.17 c 0.888,0 1.081,0.342 1.081,1.547 v 3.195 c 0,1.141 -0.53,1.862 -1.375,1.862 -0.575,0 -1.419,-0.315 -2.161,-0.803 z m -4.591,-0.104 c -0.974,-1.481 -2.458,-2.265 -4.318,-2.265 -2.582,0 -4.447,1.759 -4.447,4.193 0,2.771 2.395,4.908 5.482,4.908 1.821,0 3.198,-0.762 3.198,-1.799 0,-0.633 -0.422,-1.06 -1.082,-1.06 -1.478,0 -1.793,1.885 -3.022,1.885 -1.06,0 -1.783,-1.29 -1.783,-3.194 0,-2.287 1.084,-3.831 2.648,-3.831 0.955,0 1.841,0.484 2.709,1.502 z M -29.441,2.9 c -0.021,1.631 -0.593,2.624 -1.506,2.624 -0.866,0 -1.647,-1.118 -1.502,-2.624 z m 2.727,-2.792 c -1.181,-1.669 -2.898,-2.688 -4.529,-2.688 -2.307,0 -3.872,1.778 -3.872,4.339 0,2.794 1.887,4.762 4.527,4.762 1.126,0 2.015,-0.36 2.669,-1.016 1.25,-1.248 0.658,-2.434 1.399,-2.815 V 2.076 h -5.864 c 0.169,-1.757 1.353,-3.089 2.604,-3.089 0.78,0 1.543,0.441 2.584,1.525 z M -37.93,-2.347 h -5.887 v 0.676 h 0.148 c 0.87,0 1.185,0.381 1.185,1.48 V 3.26 c 0,0.952 -0.125,1.166 -0.759,1.419 l -0.574,0.235 v 0.527 l 3.471,1.312 h 0.447 V 4.384 h 0.042 c 0.782,1.524 1.121,2.137 1.842,2.137 0.145,0 0.318,-0.022 0.421,-0.062 l 1.672,-0.616 c -0.253,-0.89 -0.591,-1.648 -1.01,-2.242 -0.662,0.255 -1.443,0.529 -1.721,0.529 -0.422,0 -0.778,-0.298 -1.246,-0.952 v -3.431 c 0,-1.018 0.318,-1.418 1.419,-1.418 h 0.55 z M -47.666,0 c 0,-0.784 0.356,-1.118 0.971,-1.118 0.507,0 0.994,0.316 1.609,1.056 l 0.297,-0.592 c -0.635,-1.142 -1.906,-1.926 -3.071,-1.926 -1.436,0 -2.395,0.807 -2.395,2.625 v 5.077 h -1.118 v 0.555 c 1.269,0.527 2.713,2.073 3.091,3.257 h 0.616 V 6.288 h 2.769 l -0.316,-1.166 h -2.453 z m -8.849,10.817 h 5.487 V 9.992 h -0.151 c -1.692,0 -1.948,-0.739 -1.948,-1.757 V 2.967 c 0,-4.722 -3.427,-5.608 -5.945,-5.608 -3.812,0 -6.224,1.647 -6.224,4.887 v 6.306 c 0,1.061 -0.295,1.44 -1.482,1.44 h -0.36 v 0.825 h 6.625 V 9.992 h -0.356 c -0.895,0 -1.504,-0.401 -1.504,-1.44 V 2.246 c 0,-2.582 1.901,-3.471 3.827,-3.471 2.775,0 4.153,1.564 4.153,3.894 v 5.143 c 0,1.502 -0.425,2.18 -1.739,2.18 h -0.383 z" /></g><g
           transform="translate(198.0794,48.4131)"
           id="g56"><path
             id="path58"
             style="fill:#ffffff;fill-opacity:1;fill-rule:nonzero;stroke:none"
             d="m 0,0 -0.423,-0.93 c -1.121,-2.454 -2.241,-1.143 -3.214,-2.116 -0.191,-0.19 -0.318,-0.549 -0.318,-0.888 0,-0.698 0.571,-1.205 1.332,-1.205 0.74,0 1.396,0.507 1.925,1.565 l 4.736,9.643 c 0.593,1.204 0.868,1.459 1.819,1.67 V 8.416 H 1.924 V 7.739 C 3.193,7.718 3.468,6.999 3.023,6.09 L 1.416,2.833 -0.339,6.47 C -0.74,7.316 -0.572,7.739 0.528,7.739 V 8.416 H -4.865 V 7.739 c 0.91,0 1.27,-0.401 2.009,-1.924 z m -9.004,2.126 c 0,-0.783 0.356,-1.119 0.971,-1.119 0.506,0 0.989,0.319 1.608,1.058 L -6.13,1.47 c -0.634,-1.14 -1.903,-1.924 -3.071,-1.924 -1.436,0 -2.391,0.807 -2.391,2.623 v 5.082 h -1.121 v 0.551 c 1.27,0.528 2.71,2.073 3.09,3.258 h 0.619 V 8.414 h 2.77 L -6.553,7.251 h -2.451 z m -5.784,10.12 c 0,-0.848 -0.802,-1.44 -1.672,-1.44 -0.972,0 -1.692,0.615 -1.692,1.44 0,0.761 0.803,1.439 1.692,1.439 0.973,0 1.672,-0.636 1.672,-1.439 m 0.996,-12.468 h -5.294 v 0.679 h 0.236 c 0.865,0 1.184,0.381 1.184,1.481 v 4.061 c 0,0.553 -0.122,0.703 -0.718,0.912 l -0.702,0.256 v 0.507 l 3.62,1.205 h 0.381 V 1.788 c 0,-0.867 0.36,-1.331 1.293,-1.331 z m -13.293,2.498 h 0.677 c 0.361,-1.186 1.293,-1.819 2.201,-1.819 0.593,0 1.097,0.445 1.097,0.972 0,1.461 -3.975,1.967 -3.975,4.532 0,1.609 1.335,2.688 3.319,2.688 0.806,0 1.486,-0.127 2.374,-0.446 l 0.04,-2.264 h -0.68 c -0.379,1.164 -1.078,1.797 -1.987,1.797 -0.55,0 -0.972,-0.339 -0.972,-0.803 0,-1.735 4.169,-1.8 4.169,-4.701 0,-1.564 -1.121,-2.665 -2.751,-2.665 -1.464,0 -1.949,0.298 -2.245,0.298 -0.126,0 -0.251,-0.087 -0.423,-0.276 h -0.613 z m -3.348,-2.498 h -5.88 v 0.679 h 0.147 c 0.866,0 1.182,0.381 1.182,1.481 v 3.451 c 0,0.952 -0.127,1.163 -0.762,1.417 l -0.567,0.234 v 0.53 l 3.467,1.309 h 0.447 V 6.51 h 0.045 c 0.779,1.524 1.117,2.139 1.838,2.139 0.15,0 0.319,-0.023 0.422,-0.065 l 1.671,-0.615 c -0.251,-0.887 -0.591,-1.649 -1.013,-2.241 -0.658,0.253 -1.441,0.526 -1.717,0.526 -0.422,0 -0.782,-0.293 -1.246,-0.952 V 1.876 c 0,-1.017 0.318,-1.419 1.419,-1.419 h 0.547 z m -9.926,5.251 c -0.019,1.627 -0.592,2.624 -1.504,2.624 -0.868,0 -1.65,-1.122 -1.502,-2.624 z m 2.73,-2.797 c -1.187,-1.668 -2.898,-2.686 -4.527,-2.686 -2.313,0 -3.873,1.78 -3.873,4.337 0,2.797 1.881,4.766 4.527,4.766 1.124,0 2.007,-0.36 2.664,-1.018 1.254,-1.247 0.659,-2.433 1.4,-2.817 V 4.203 h -5.864 c 0.17,-1.758 1.354,-3.09 2.602,-3.09 0.783,0 1.545,0.441 2.583,1.525 z m -19.387,6.182 h 5.376 V 7.736 h -0.74 c -0.449,0 -0.633,-0.4 -0.275,-1.184 l 1.881,-4.215 1.65,3.728 c 0.488,1.102 0.236,1.525 -1.246,1.671 v 0.678 h 4.21 V 7.736 c -1.102,-0.105 -1.374,-0.381 -1.777,-1.267 l -3.024,-6.838 h -1.271 l -3.153,6.792 c -0.4,0.87 -0.703,1.208 -1.631,1.313 z m -1.228,3.832 c 0,-0.848 -0.807,-1.44 -1.672,-1.44 -0.976,0 -1.692,0.615 -1.692,1.44 0,0.761 0.803,1.439 1.692,1.439 0.969,0 1.672,-0.636 1.672,-1.439 m 0.994,-12.468 h -5.291 v 0.679 h 0.234 c 0.868,0 1.183,0.381 1.183,1.481 v 4.061 c 0,0.553 -0.127,0.703 -0.72,0.912 l -0.697,0.256 v 0.507 l 3.619,1.205 h 0.385 V 1.788 c 0,-0.867 0.353,-1.331 1.287,-1.331 z m -7.895,1.926 c 0,-1.036 0.377,-1.247 1.206,-1.247 v -0.679 h -4.997 v 0.679 c 0.868,0.062 1.208,0.656 1.208,2.392 V 4.69 c 0,1.694 -0.468,2.35 -1.312,2.35 -0.657,0 -1.356,-0.318 -2.246,-0.932 V 1.81 c 0,-0.951 0.404,-1.353 1.248,-1.353 h 0.19 v -0.679 h -5.353 v 0.679 h 0.125 c 0.891,0 1.207,0.381 1.207,1.481 v 4.127 c 0,0.466 -0.253,0.741 -0.996,0.952 l -0.441,0.127 v 0.509 l 3.617,1.226 h 0.403 V 6.998 c 1.543,1.015 2.899,1.651 3.915,1.651 1.547,0 2.226,-1.103 2.226,-3.64 z m -15.431,11.241 h 5.482 v -0.826 h -0.149 c -1.691,0 -1.948,-0.741 -1.948,-1.758 V 5.09 c 0,-4.719 -3.427,-5.605 -5.946,-5.605 -3.812,0 -6.224,1.647 -6.224,4.886 v 6.309 c 0,1.057 -0.294,1.439 -1.481,1.439 h -0.361 v 0.826 h 6.629 v -0.826 h -0.36 c -0.891,0 -1.506,-0.402 -1.506,-1.439 V 4.371 c 0,-2.583 1.908,-3.469 3.832,-3.469 2.776,0 4.151,1.566 4.151,3.896 v 5.14 c 0,1.502 -0.427,2.181 -1.739,2.181 h -0.38 z" /></g></g></g></g></svg>
