<?xml version="1.0" encoding="UTF-8"?>
<!-- Generator: Adobe Illustrator 21.0.0, SVG Export Plug-In . SVG Version: 6.00 Build 0)  -->
<svg version="1.1" id="Layer_1" xmlns="http://www.w3.org/2000/svg" xmlns:xlink="http://www.w3.org/1999/xlink" x="0px" y="0px" viewBox="0 0 210.5 62.5" style="enable-background:new 0 0 210.5 62.5;" xml:space="preserve">
<style type="text/css">
	.Arched_x0020_Green{fill:url(#SVGID_1_);stroke:#FFFFFF;stroke-width:0.25;stroke-miterlimit:1;}
	.st0{fill:#FFFFFF;}
	.st1{fill:#0089CF;}
</style>
<linearGradient id="SVGID_1_" gradientUnits="userSpaceOnUse" x1="-306.9697" y1="333.7686" x2="-306.2626" y2="333.0615">
	<stop offset="0" style="stop-color:#2AB35B"/>
	<stop offset="0.9831" style="stop-color:#0D331A"/>
</linearGradient>
<rect class="st0" width="210.5" height="62.5"/>
<polygon class="st1" points="193.2,35.7 193.2,29.6 190.6,29.6 190.6,28.6 197.2,28.6 197.2,29.6 194.7,29.6 194.7,35.7 "/>
<polygon points="25.8,48.8 13.5,15.4 20.9,15.4 30.5,41.2 39.8,15.4 44.7,15.4 32.8,48.8 "/>
<path d="M48.8,15.4h6.9v20.5c0,3.7,0.6,6.1,1.9,7.4c1.3,1.2,2.9,1.8,4.9,1.8c2,0,3.5-0.6,4.7-1.8c1.2-1.2,1.7-3.5,1.7-6.9v-21h6  v20.5c0,3.9-0.5,6.6-1.5,8.3c-1,1.7-2.4,3-4.2,4c-1.8,1-4.2,1.4-7,1.4c-2.8,0-5.1-0.4-7.1-1.3c-2-0.9-3.6-2.2-4.7-4  c-1.2-1.8-1.7-4.6-1.7-8.4V15.4z"/>
<path class="st0" d="M84.5,40.6v0.9l0.3-0.2c-0.1-0.2-0.1-0.5-0.2-0.7L84.5,40.6z"/>
<path class="st1" d="M88.9,30.8c0-0.1,0.1-0.3,0.3-0.3c0.1,0,0.3,0.1,0.3,0.3c0,0.1-0.1,0.3-0.3,0.3C89,31.1,88.9,31,88.9,30.8"/>
<path class="st1" d="M105.4,38.9c-0.4-1.1-1.5-1.8-2.9-1.7c-0.8-1.5-2.1-0.8-2.5-0.4c0.4,0.4,0.7,0.5,1.2,0.6v0.3  c-0.9,0-1.2-0.4-1.8-1.1c-0.3,2.2,2.3,3,3.1,1.2c1.2,0,2,0.5,2.2,1.3c0.3,0.8,0,1.6-0.4,2c-0.7,0.9-1.9,0.9-3,0.3  c-0.7-0.3-1.4-1-2-1.7c-0.9-1-1.4-1.5-2.1-1.8c-0.4-0.2-0.8-0.3-1.1-0.3c-0.2,0-0.4-0.1-0.7-0.1c-0.2,0-0.4,0-0.6,0.1  c-1.6,0.2-3.2,0.9-5.1,1.1h-1c-0.6,0.6-1.2,1.1-1.7,1.5l-1.2,1c0,0,0,0,0,0c-0.5,0.5-0.8,0.7-0.8,0.7c0.1,1.1,0.2,1.7,0.2,2.7  c0,0.9,0,1.3,0,1.6c0,0.4-0.1,0.7-0.2,1c-0.1,0.3-0.3,0.5-0.7,0.5c-0.3,0.1-1.1-0.5-1.4-0.1c-0.2,0.3,0,1,0.3,1.2h2.2  c0.3-0.5,0.4-0.9,0.5-1.2c0.2-0.3,0.3-0.7,0.5-0.9c0.2-0.3,0.3-0.6,0.4-0.9c0-0.3,0.1-0.5,0.2-0.7c0.2-0.4,0.4-0.8,0.5-1  c0-0.1,0.1-0.1,0.1-0.2c0.1,0.1,0.2,0.3,0.2,0.4c0.5,0.8,1,1.4,1.7,1.7c0.3,0.1,0.5,0.3,0.6,0.4c0.1,0.1,0.1,0.4,0.1,0.7  c0,0.3-0.1,0.6-0.4,0.7c-0.5,0.2-1.2-0.5-1.5-0.1c-0.3,0.3,0,0.8,0.3,1.2h2c0.5-0.8,0.7-1.8,0.7-2.7c0-0.9,0-1.1-0.6-1.4  c-0.2-0.1-0.4-0.6-0.5-1c0-0.1,0-0.1,0-0.3c0.9-0.3,2-0.9,3.1-1.7c0,0.2,0,0.3,0,0.5c0.2,1.3,0.3,2.4,1.3,3.3  c0.3,0.3,0.5,0.5,0.5,0.7c0,0.1-0.1,0.5-0.3,0.7c-0.2,0.5-0.7,0.9-1.1,0.9c-0.5,0.1-1-0.6-1.4-0.2c-0.3,0.3,0.1,1,0.3,1.2h2  c0.7-1.2,1.6-2.2,1.9-2.9c0.2-0.5,0.2-0.7-0.2-0.8c-0.7-0.4-0.6-1.2-0.4-2.1c0-0.2,0.1-0.3,0.2-0.5c0.5,1.4,1.2,2.7,2.7,3.1  c0.3,0,0.6,0.2,0.7,0.3c0,0.1,0,0.4,0,0.6c-0.1,0.4-0.3,1-0.7,1.2c-0.4,0.3-1.3-0.7-1.6-0.1c-0.2,0.4,0.2,1,0.3,1.2h2  c0.5-1.2,1-2.3,1.2-3.1c0.1-0.9,0.1-1.3-0.6-1.4c-0.4,0-0.7-0.2-0.8-0.7c-0.3-0.9-0.2-2.5-0.9-3.5c0.8,0.9,1.6,1.6,2.4,2  c1.7,0.9,3.5,0.6,4.3-0.6C105.6,40.6,105.6,39.6,105.4,38.9"/>
<path class="st1" d="M122.3,15.6c-1.5-0.2-4.9,0.2-7.9,0.8c1.8-0.9,2.4-1.1,3-1.5c0.2-0.1,0.3-0.4,0.3-0.8c0-0.4-0.4-0.5-0.9-0.4  c-0.5,0-1.5,0.4-2.8,0.8c-2.5,1-6.1,2.7-10.4,5.6c-3.8,2.6-6.3,4.8-9,7.5c-0.7,0.7-1.5,1.6-2.4,2.6C92.1,30,92,29.9,91.7,30  c1-2.2,1.1-2.3,1.6-3.5c0.2-0.6,0.1-1-0.1-1.3c-0.3-0.5-0.7-0.2-1,0c-0.4,0.5-0.5,0.6-1.4,1.7c1.1-3.7,1.7-4,2.7-6.1  c0.1-0.3,0.1-0.7,0-1c-0.1-0.3-0.3-0.4-0.5-0.3c-0.4,0.2-0.5,0.4-1.3,1.3c1.1-2.1,2.6-4.6,2.8-5c0.2-0.4,0.4-0.5,0-1.2  c-0.4-0.6-0.7-0.1-1,0.1c-0.2,0.1-0.7,0.6-1.4,1.5c1.6-3,3.1-4.4,3.4-4.9c0.4-0.6,0.4-0.7,0.1-1.4c-0.3-0.6-0.8-0.3-1,0  c-1.1,1.1-1.1,0.8-3,3.1c1-2.6,2.7-4.6,3.3-5.6c0.3-0.4,0.3-0.6,0-1.5c-0.1-0.4-0.5-0.6-0.9-0.6C93.5,5.5,93,5.8,92,6.7  c-2.1,1.9-4.9,4.6-7.2,9.5c-2.2,4.6-2.7,8.9-2.7,11.9c0,4.6,1.2,8.6,2.3,11.2c0-0.1,0-0.2,0-0.3c-0.1-1.2,0.1-2.7,0.4-3.4  c0.5-1.8,1.1-2.8,1.6-3.6l-0.9-1.2l1.2,0.4L86,29.6c0,0,0.9,0.1,1.6,1c0.4-0.4,1.3-0.7,2.1-0.1c0.6,0,0.9,0.1,1.2,0.2  c0.6,0.4,0.5,1,0.5,1.2c-0.3-0.3-1.3-0.9-2.2-0.1l1.8,0.6l-2.3,0.2V35l-2.8,2.5v0.9l1.9-1.7v0.9l-3.3,3v0.9l4.2-3.8v0l1.1-0.9l0,0  c0.6-0.5,0.9-0.8,1.3-1c0.4-0.3,0.5,0,0.6,0.5c0.1,0.4,0.6,0.8,1.6-0.1c2.9-2.7,6-4.1,9.3-5.7c-1.8,1.2-5,3-6.1,4.2  c-0.5,0.6,0,1.9,0.8,1.3c1.4-0.9,3.2-1.1,4.2-1c0.4,0,0.9-0.3,1.2-0.7c0.3-0.3,0.3-0.7-0.3-0.7c3-0.9,3.8-1.2,6.3-1.4  c0.7,0,1.1-0.4,1.2-1c0.1-0.5-0.1-0.7-0.8-0.7c-0.7-0.1-2,0.1-3.3,0.3c2.9-1.2,6.4-1.9,9.2-2.7c0.9-0.3,1-0.5,1-1  c0.1-0.6-0.3-0.6-1.3-0.6c-2,0.1-5,0.3-9.6,1.6c4.3-2.2,6.8-3.2,10.7-4.2c1.1-0.3,1.2-0.6,1.3-1.1c0.2-0.6-0.3-0.6-0.7-0.6  c-0.6,0-1.9,0-4.6,0.8c2.6-1.1,5.5-2.5,7.5-3.1c0.4-0.2,0.7-0.4,0.7-0.9c0-0.4-0.1-0.4-0.5-0.4c-0.9,0-2.3,0.3-4,0.8  c3.5-1.5,4.6-2,7-2.4c0.8-0.2,0.9-0.4,1-0.9C123.2,15.6,122.8,15.6,122.3,15.6 M87.2,27.6c0-0.3-0.2-0.5-0.4-0.6  c0.5-1.3,1-2.2,2-3.6C87.9,25.2,87.5,26.8,87.2,27.6 M84,26.5c0.7-7.5,4.1-13,6.4-15.6C87.1,15.9,85.2,22.8,84,26.5 M96.5,28.7  c4.4-4.2,10.4-8.6,18-10.4C108.1,20.5,99.3,26.5,96.5,28.7"/>
<polygon class="st1" points="131.9,22.7 129.3,15.5 130.9,15.5 132.9,21.1 134.9,15.5 136,15.5 133.4,22.7 "/>
<g>
	<path class="st1" d="M138.3,18.8h0.3c0.6,0,1-0.1,1.3-0.4c0.2-0.3,0.4-0.6,0.4-0.9c0-0.3-0.1-0.5-0.3-0.7c-0.2-0.2-0.6-0.3-1.2-0.3   h-0.5V18.8z M136.9,22.7v-7.1h2.7c0.5,0,1,0.1,1.2,0.2c0.3,0.1,0.5,0.3,0.7,0.6c0.2,0.3,0.2,0.6,0.2,0.9c0,0.4-0.1,0.8-0.4,1.2   c-0.2,0.4-0.6,0.7-1,0.9l2.3,3.3h-1.8l-1.8-2.9h-0.8v2.9H136.9z"/>
</g>
<rect x="143.7" y="15.5" class="st1" width="1.5" height="7.1"/>
<g>
	<path class="st1" d="M145.8,23.9l0-1.1c0.4,0.2,0.8,0.2,1.2,0.2c0.2,0,0.3,0,0.5-0.1c0.1-0.1,0.2-0.2,0.3-0.3   c0.1-0.1,0.1-0.4,0.1-0.9v-6.3h1.5v6.1c0,0.7-0.1,1.2-0.2,1.5c-0.2,0.3-0.4,0.6-0.7,0.7c-0.3,0.2-0.8,0.3-1.3,0.3   C146.6,24.1,146.2,24.1,145.8,23.9"/>
</g>
<polygon class="st1" points="151.1,22.7 151.1,15.5 155.7,15.5 155.7,16.5 152.6,16.5 152.6,18.5 155.2,18.5 155.2,19.5 152.6,19.5   152.6,21.7 155.9,21.7 155.9,22.7 "/>
<g>
	<path class="st1" d="M130,28.6h1.5V33c0,0.8,0.1,1.3,0.4,1.6c0.3,0.3,0.6,0.4,1,0.4c0.4,0,0.8-0.1,1-0.4c0.2-0.3,0.4-0.7,0.4-1.5   v-4.5h1.3V33c0,0.8-0.1,1.4-0.3,1.8c-0.2,0.4-0.5,0.6-0.9,0.8c-0.4,0.2-0.9,0.3-1.5,0.3c-0.6,0-1.1-0.1-1.5-0.3   c-0.4-0.2-0.8-0.5-1-0.9c-0.2-0.4-0.4-1-0.4-1.8V28.6z"/>
</g>
<polygon class="st1" points="137.4,35.7 137.4,28.6 138.7,28.6 142,33.5 142,28.6 143.2,28.6 143.2,35.7 141.9,35.7 138.6,30.9   138.6,35.7 "/>
<rect x="145.1" y="28.6" class="st1" width="1.5" height="7.1"/>
<polygon class="st1" points="150.2,35.7 147.6,28.6 149.2,28.6 151.2,34.1 153.2,28.6 154.3,28.6 151.7,35.7 "/>
<polygon class="st1" points="155.1,35.7 155.1,28.6 159.6,28.6 159.6,29.6 156.6,29.6 156.6,31.6 159.1,31.6 159.1,32.5 156.6,32.5   156.6,34.7 159.9,34.7 159.9,35.7 "/>
<g>
	<path class="st1" d="M162.5,31.8h0.3c0.6,0,1-0.1,1.3-0.4c0.2-0.3,0.4-0.6,0.4-0.9c0-0.3-0.1-0.5-0.3-0.7c-0.2-0.2-0.6-0.3-1.2-0.3   h-0.5V31.8z M161.1,35.7v-7.1h2.7c0.5,0,1,0.1,1.2,0.2c0.3,0.1,0.5,0.3,0.7,0.6c0.2,0.3,0.2,0.6,0.2,0.9c0,0.4-0.1,0.8-0.4,1.2   c-0.2,0.4-0.6,0.7-1,0.8l2.3,3.3h-1.8l-1.8-2.9h-0.8v2.9H161.1z"/>
	<path class="st1" d="M167.3,35.7v-1.2c0.6,0.2,1,0.4,1.3,0.4c0.3,0,0.5,0.1,0.8,0.1c0.4,0,0.7-0.1,0.9-0.3c0.2-0.2,0.3-0.4,0.3-0.7   c0-0.2-0.1-0.4-0.2-0.5c-0.1-0.2-0.4-0.4-0.8-0.6l-0.5-0.3c-0.7-0.4-1.2-0.7-1.4-1.1c-0.2-0.3-0.4-0.7-0.4-1.1c0-0.5,0.2-1,0.6-1.4   c0.4-0.4,1-0.6,1.8-0.6c0.6,0,1.2,0.1,1.9,0.2v1.1c-0.7-0.3-1.3-0.4-1.8-0.4c-0.4,0-0.6,0.1-0.8,0.2c-0.2,0.2-0.3,0.3-0.3,0.6   c0,0.2,0.1,0.3,0.2,0.5c0.1,0.1,0.4,0.3,0.8,0.6l0.5,0.3c0.8,0.4,1.3,0.8,1.5,1.1c0.2,0.3,0.3,0.7,0.3,1.1c0,0.6-0.2,1.1-0.7,1.5   c-0.4,0.4-1.2,0.6-2.1,0.6C168.8,35.9,168.1,35.8,167.3,35.7"/>
</g>
<rect x="173.4" y="28.6" class="st1" width="1.5" height="7.1"/>
<polygon class="st1" points="178,35.7 178,29.6 175.4,29.6 175.4,28.6 182,28.6 182,29.6 179.4,29.6 179.4,35.7 "/>
<polygon class="st1" points="182.6,35.7 182.6,28.6 187.1,28.6 187.1,29.6 184,29.6 184,31.6 186.6,31.6 186.6,32.5 184,32.5   184,34.7 187.4,34.7 187.4,35.7 "/>
<rect x="188.6" y="28.6" class="st1" width="1.5" height="7.1"/>
<path class="st1" d="M131.5,45.9h2.2l-1.1-2.8L131.5,45.9z M129.3,48.8l2.8-7.1h1.5l2.8,7.1h-1.5l-0.7-1.9h-3l-0.7,1.9H129.3z"/>
<polygon class="st1" points="137.3,48.8 137.3,41.6 139.2,41.6 141,46.7 142.7,41.6 144.5,41.6 144.5,48.8 143.1,48.8 143.1,43.4   141.3,48.3 140.1,48.3 138.4,43.3 138.4,48.8 "/>
<g>
	<path class="st1" d="M145.9,48.7v-1.2c0.6,0.2,1,0.4,1.2,0.4c0.3,0,0.5,0.1,0.8,0.1c0.4,0,0.7-0.1,0.9-0.3c0.2-0.2,0.3-0.4,0.3-0.7   c0-0.2-0.1-0.4-0.2-0.5c-0.1-0.2-0.4-0.4-0.8-0.6l-0.5-0.3c-0.7-0.4-1.2-0.7-1.4-1.1c-0.2-0.3-0.4-0.7-0.4-1.1c0-0.5,0.2-1,0.6-1.4   c0.4-0.4,1-0.6,1.8-0.6c0.6,0,1.2,0.1,1.9,0.2v1.1c-0.7-0.3-1.3-0.4-1.8-0.4c-0.4,0-0.6,0.1-0.8,0.2c-0.2,0.2-0.3,0.3-0.3,0.6   c0,0.2,0.1,0.3,0.2,0.5c0.1,0.1,0.4,0.3,0.8,0.6l0.5,0.3c0.8,0.4,1.3,0.8,1.5,1.2c0.2,0.3,0.3,0.7,0.3,1.1c0,0.6-0.2,1.1-0.7,1.5   c-0.4,0.4-1.2,0.6-2.1,0.6C147.4,48.9,146.7,48.9,145.9,48.7"/>
</g>
<polygon class="st1" points="153.2,48.8 153.2,42.6 150.7,42.6 150.7,41.6 157.3,41.6 157.3,42.6 154.7,42.6 154.7,48.8 "/>
<polygon class="st1" points="157.9,48.8 157.9,41.6 162.4,41.6 162.4,42.6 159.4,42.6 159.4,44.6 161.9,44.6 161.9,45.6 159.4,45.6   159.4,47.8 162.7,47.8 162.7,48.8 "/>
<g>
	<path class="st1" d="M165.2,44.9h0.3c0.6,0,1-0.1,1.3-0.4c0.2-0.3,0.3-0.6,0.3-0.9c0-0.3-0.1-0.5-0.3-0.7c-0.2-0.2-0.6-0.3-1.2-0.3   h-0.5V44.9z M163.8,48.8v-7.1h2.7c0.5,0,1,0.1,1.3,0.2c0.3,0.1,0.5,0.3,0.7,0.6c0.2,0.3,0.3,0.6,0.3,0.9c0,0.4-0.1,0.8-0.4,1.2   c-0.2,0.4-0.6,0.7-1,0.9l2.3,3.3h-1.8l-1.8-2.9h-0.8v2.9H163.8z"/>
	<path class="st1" d="M171.9,47.8h1.1c0.6,0,1-0.1,1.3-0.3c0.3-0.2,0.5-0.5,0.7-0.9c0.2-0.4,0.3-0.9,0.3-1.4c0-0.5-0.1-1-0.3-1.3   c-0.2-0.4-0.4-0.7-0.7-0.9c-0.3-0.2-0.8-0.3-1.6-0.3h-0.9V47.8z M170.4,48.8v-7.1h3.1c0.8,0,1.5,0.1,1.9,0.4   c0.5,0.3,0.8,0.7,1.1,1.2c0.3,0.5,0.4,1.1,0.4,1.9c0,0.7-0.1,1.3-0.4,1.9c-0.3,0.6-0.6,1-1.1,1.3c-0.5,0.3-1.2,0.5-2,0.5H170.4z"/>
</g>
<path class="st1" d="M179.2,45.9h2.2l-1.1-2.8L179.2,45.9z M177,48.8l2.8-7.1h1.5l2.8,7.1h-1.5l-0.7-1.9h-3l-0.7,1.9H177z"/>
<polygon class="st1" points="184.8,48.8 184.8,41.6 186.8,41.6 188.5,46.7 190.3,41.6 192,41.6 192,48.8 190.6,48.8 190.6,43.4   188.9,48.3 187.7,48.3 186,43.3 186,48.8 "/>
</svg>